HIERARCHY
ROOT hips
{
  OFFSET 0 10.6860622 2.3727825e-15
  CHANNELS 6 Xposition Yposition Zposition Yrotation Xrotation Zrotation
  JOINT leftUpperLeg
  {
    OFFSET 0.6642549969 -0.9402397400000004 0
    CHANNELS 3 Yrotation Xrotation Zrotation
    JOINT leftLowerLeg
    {
      OFFSET 0 -3.997221335632195 0
      CHANNELS 3 Yrotation Xrotation Zrotation
      JOINT leftFoot
      {
        OFFSET -0.13777839790000004 -4.6145792000000005 -0.22186036399999998
        CHANNELS 3 Yrotation Xrotation Zrotation
        JOINT leftToes
        {
          OFFSET -0.03777410834999995 -0.9130806927000008 0.85230013
          CHANNELS 3 Yrotation Xrotation Zrotation
          End Site
          {
            OFFSET -0.03777410834999995 -0.9130806927000008 0.85230013
          }
        }
      }
    }
  }
  JOINT rightUpperLeg
  {
    OFFSET -0.6642778626 -0.9402397400000004 0
    CHANNELS 3 Yrotation Xrotation Zrotation
    JOINT rightLowerLeg
    {
      OFFSET 0 -3.997221452859387 0
      CHANNELS 3 Yrotation Xrotation Zrotation
      JOINT rightFoot
      {
        OFFSET 0.1377926176 -4.6145792000000005 -0.22185782299999995
        CHANNELS 3 Yrotation Xrotation Zrotation
        JOINT rightToes
        {
          OFFSET 0.037780746850000047 -0.9130806927000008 0.85230167
          CHANNELS 3 Yrotation Xrotation Zrotation
          End Site
          {
            OFFSET 0.037780746850000047 -0.9130806927000008 0.85230167
          }
        }
      }
    }
  }
  JOINT spine
  {
    OFFSET 0 0.13988381660000015 0
    CHANNELS 3 Yrotation Xrotation Zrotation
    JOINT chest
    {
      OFFSET 0 0.6191039003973773 0
      CHANNELS 3 Yrotation Xrotation Zrotation
      JOINT upperChest
      {
        OFFSET 0 0.9855186130586943 0
        CHANNELS 3 Yrotation Xrotation Zrotation
        JOINT leftShoulder
        {
          OFFSET 0.1807663869 1.5087829790000005 0
          CHANNELS 3 Yrotation Xrotation Zrotation
          JOINT leftUpperArm
          {
            OFFSET 0.5985063006419806 0 0
            CHANNELS 3 Yrotation Xrotation Zrotation
            JOINT leftLowerArm
            {
              OFFSET 2.2993332369501065 0 0
              CHANNELS 3 Yrotation Xrotation Zrotation
              JOINT leftHand
              {
                OFFSET 2.395047042602395 0 0
                CHANNELS 3 Yrotation Xrotation Zrotation
                JOINT leftIndexProximal
                {
                  OFFSET 0.5766295810000004 0.04556643899499946 0.17265095988184
                  CHANNELS 3 Yrotation Xrotation Zrotation
                  JOINT leftIndexIntermediate
                  {
                    OFFSET 0.2957229000000008 -0.019352197700001517 -0.007932640616999987
                    CHANNELS 3 Yrotation Xrotation Zrotation
                    JOINT leftIndexDistal
                    {
                      OFFSET 0.19008243099999922 -0.012484908149998475 -0.002786250786000012
                      CHANNELS 3 Yrotation Xrotation Zrotation
                      End Site
                      {
                        OFFSET 0.19008243099999922 -0.012484908149998475 -0.002786250786000012
                      }
                    }
                  }
                }
                JOINT leftMiddleProximal
                {
                  OFFSET 0.5834975091000001 0.0524350405149987 0.02204081888183999
                  CHANNELS 3 Yrotation Xrotation Zrotation
                  JOINT leftMiddleIntermediate
                  {
                    OFFSET 0.33880573540000003 -0.019871473270000717 -0.00000971183179999946
                    CHANNELS 3 Yrotation Xrotation Zrotation
                    JOINT leftMiddleDistal
                    {
                      OFFSET 0.20676022730000088 -0.012221336379999448 0.0001471936708000235
                      CHANNELS 3 Yrotation Xrotation Zrotation
                      End Site
                      {
                        OFFSET 0.20676022730000088 -0.012221336379999448 0.0001471936708000235
                      }
                    }
                  }
                }
                JOINT leftLittleProximal
                {
                  OFFSET 0.5344154683999995 -0.012880921405001189 -0.24414037221816004
                  CHANNELS 3 Yrotation Xrotation Zrotation
                  JOINT leftLittleIntermediate
                  {
                    OFFSET 0.21758961730000093 -0.011650919939999227 0.011893592810000034
                    CHANNELS 3 Yrotation Xrotation Zrotation
                    JOINT leftLittleDistal
                    {
                      OFFSET 0.1475273964999999 -0.008152365682999818 0.006001092492999946
                      CHANNELS 3 Yrotation Xrotation Zrotation
                      End Site
                      {
                        OFFSET 0.1475273964999999 -0.008152365682999818 0.006001092492999946
                      }
                    }
                  }
                }
                JOINT leftRingProximal
                {
                  OFFSET 0.5799399463000003 0.026911854694997794 -0.12150566991816003
                  CHANNELS 3 Yrotation Xrotation Zrotation
                  JOINT leftRingIntermediate
                  {
                    OFFSET 0.26167887460000006 -0.013480186499999602 0.010996293000000053
                    CHANNELS 3 Yrotation Xrotation Zrotation
                    JOINT leftRingDistal
                    {
                      OFFSET 0.17667108799999987 -0.008990287899999228 0.0055541023999999065
                      CHANNELS 3 Yrotation Xrotation Zrotation
                      End Site
                      {
                        OFFSET 0.17667108799999987 -0.008990287899999228 0.0055541023999999065
                      }
                    }
                  }
                }
                JOINT leftThumbProximal
                {
                  OFFSET 0.11018806699999972 -0.09448718900500053 0.17047963138184
                  CHANNELS 3 Yrotation Xrotation Zrotation
                  JOINT leftThumbIntermediate
                  {
                    OFFSET 0.31062601459999983 -0.08126270900000132 0.15443142000000007
                    CHANNELS 3 Yrotation Xrotation Zrotation
                    JOINT leftThumbDistal
                    {
                      OFFSET 0.21627175790000086 -0.08833193599999878 0.018771167799999988
                      CHANNELS 3 Yrotation Xrotation Zrotation
                      End Site
                      {
                        OFFSET 0.21627175790000086 -0.08833193599999878 0.018771167799999988
                      }
                    }
                  }
                }
              }
            }
          }
        }
        JOINT neck
        {
          OFFSET 0 1.5463305265074576 0
          CHANNELS 3 Yrotation Xrotation Zrotation
          JOINT head
          {
            OFFSET 0 0.8456443600000344 0
            CHANNELS 3 Yrotation Xrotation Zrotation
            JOINT leftEye
            {
              OFFSET 0.30408573140000006 0.5104519199999995 0.1276382305
              CHANNELS 3 Yrotation Xrotation Zrotation
              End Site
              {
                OFFSET 0.30408573140000006 0.5104519199999995 0.1276382305
              }
            }
            JOINT rightEye
            {
              OFFSET -0.30409491089999996 0.5104519199999995 0.1276379445
              CHANNELS 3 Yrotation Xrotation Zrotation
              End Site
              {
                OFFSET -0.30409491089999996 0.5104519199999995 0.1276379445
              }
            }
            JOINT jaw
            {
              OFFSET -3.155239131000001e-7 -0.11984121820000082 0.60178107
              CHANNELS 3 Yrotation Xrotation Zrotation
              End Site
              {
                OFFSET -3.155239131000001e-7 -0.11984121820000082 0.60178107
              }
            }
          }
        }
        JOINT rightShoulder
        {
          OFFSET -0.1807303465 1.5087829790000005 0
          CHANNELS 3 Yrotation Xrotation Zrotation
          JOINT rightUpperArm
          {
            OFFSET -0.5985063796536958 0 0
            CHANNELS 3 Yrotation Xrotation Zrotation
            JOINT rightLowerArm
            {
              OFFSET -2.2993322059002854 0 0
              CHANNELS 3 Yrotation Xrotation Zrotation
              JOINT rightHand
              {
                OFFSET -2.395045314457259 0 0
                CHANNELS 3 Yrotation Xrotation Zrotation
                JOINT rightIndexProximal
                {
                  OFFSET -0.5764487688300002 0.0441371204405987 0.17361932004999997
                  CHANNELS 3 Yrotation Xrotation Zrotation
                  JOINT rightIndexIntermediate
                  {
                    OFFSET -0.29573011380000047 -0.01934826376999843 -0.007698921482999974
                    CHANNELS 3 Yrotation Xrotation Zrotation
                    JOINT rightIndexDistal
                    {
                      OFFSET -0.19008373999999884 -0.012503266380000655 -0.0026365778999999897
                      CHANNELS 3 Yrotation Xrotation Zrotation
                      End Site
                      {
                        OFFSET -0.19008373999999884 -0.012503266380000655 -0.0026365778999999897
                      }
                    }
                  }
                }
                JOINT rightMiddleProximal
                {
                  OFFSET -0.5834852037300005 0.05211639405060153 0.02307162440000001
                  CHANNELS 3 Yrotation Xrotation Zrotation
                  JOINT rightMiddleIntermediate
                  {
                    OFFSET -0.33880114510000003 -0.019952774050000954 0.0002455003561999819
                    CHANNELS 3 Yrotation Xrotation Zrotation
                    JOINT rightMiddleDistal
                    {
                      OFFSET -0.20675694929999955 -0.012273788999999091 0.00030209124000002766
                      CHANNELS 3 Yrotation Xrotation Zrotation
                      End Site
                      {
                        OFFSET -0.20675694929999955 -0.012273788999999091 0.00030209124000002766
                      }
                    }
                  }
                }
                JOINT rightLittleProximal
                {
                  OFFSET -0.5346811737299992 -0.011214256288399227 -0.24363941305000003
                  CHANNELS 3 Yrotation Xrotation Zrotation
                  JOINT rightLittleIntermediate
                  {
                    OFFSET -0.21757715980000092 -0.011771559690000988 0.01201554387
                    CHANNELS 3 Yrotation Xrotation Zrotation
                    JOINT rightLittleDistal
                    {
                      OFFSET -0.1475201849000004 -0.00822055339600003 0.006082065407000015
                      CHANNELS 3 Yrotation Xrotation Zrotation
                      End Site
                      {
                        OFFSET -0.1475201849000004 -0.00822055339600003 0.006082065407000015
                      }
                    }
                  }
                }
                JOINT rightRingProximal
                {
                  OFFSET -0.5800810755299999 0.027657985680600072 -0.12066365025000003
                  CHANNELS 3 Yrotation Xrotation Zrotation
                  JOINT rightRingIntermediate
                  {
                    OFFSET -0.26166445029999974 -0.013623118409999302 0.011164098990000045
                    CHANNELS 3 Yrotation Xrotation Zrotation
                    JOINT rightRingDistal
                    {
                      OFFSET -0.17666387530000027 -0.009072900100000503 0.005668185599999959
                      CHANNELS 3 Yrotation Xrotation Zrotation
                      End Site
                      {
                        OFFSET -0.17666387530000027 -0.009072900100000503 0.005668185599999959
                      }
                    }
                  }
                }
                JOINT rightThumbProximal
                {
                  OFFSET -0.10997596379000074 -0.09577489355940072 0.16989765924999997
                  CHANNELS 3 Yrotation Xrotation Zrotation
                  JOINT rightThumbIntermediate
                  {
                    OFFSET -0.31036620999999986 -0.08229339117999834 0.15440884469999996
                    CHANNELS 3 Yrotation Xrotation Zrotation
                    JOINT rightThumbDistal
                    {
                      OFFSET -0.21631306399999906 -0.08825326400000111 0.018656797720000014
                      CHANNELS 3 Yrotation Xrotation Zrotation
                      End Site
                      {
                        OFFSET -0.21631306399999906 -0.08825326400000111 0.018656797720000014
                      }
                    }
                  }
                }
              }
            }
          }
        }
      }
    }
  }
}
MOTION
Frames: 8
Frame Time: 0.03333333333333333
0 11.682712981546562 0 0 0 0 0 0 -5.826343164929014 -0.3712483961610101 -3.6333298826370974 5.838118207697276 0 0 0 0 0 0 0 0 5.826343164929014 0.3712483961610101 -3.6333298826370974 -5.838118207697276 0 0 0 0 0 0 0 -4.610651315171937 0 0 3.0831277533083026 0 0 0 0 0 1.5275236235667615 0 0 0 0 0 0 0 0 0 0 0 0 0 0 0 0 0 0 0 0 0 0 0 0 0 0 0 0 0 0 0 0 0 0 0 0 0 0 0 0 0 0 0 0 0 0 0 0 0 0 0 0 0 0 0 0 1.5275236235667615 0 0 0 0 0 0 0 0 0 0 0 0 0 0 1.5275236235667615 0 0 0 0 0 0 0 0 0 0 0 0 0 0 0 0 0 0 0 0 0 0 0 0 0 0 0 0 0 0 0 0 0 0 0 0 0 0 0 0 0 0 0 0 0 0 0 0 0 0 0 0 0 0 0
0.10238333134285779 0.25072293451691324 3.0401047543497053 180 2.9994040435847213 -3.6765694193763043e-16 0.5231941149834974 -4.624335617490509 -5.478222425113753 0.6501812779308215 6.741422330674413 3.6714669851943493 0.7730417935216737 2.7676703706501034 7.108823509835362 0 0 0 -179.55471169700587 -16.699502575918064 -176.52075223509135 -0.6601198498223496 6.3674646518245055 -3.4826601428961266 -0.48208986410490523 5.824459312712634 -5.57858404562223 0 0 0 -0.7139590158338878 -2.9797445492920467 -1.2351547455400693 -0.5407350569103108 10.880114929765053 -1.3874199093398614 0 0 0 -16.842364364293157 -21.042064503772867 -10.394899938945324 -51.864392561923374 -24.283911907319197 3.544787285130806 -64.03203504116757 -19.61095757880171 -30.022070728533105 21.32850306789858 -10.783654715781447 -25.89392010124433 0 0 0 0 0 0 0 0 0 0 0 0 0 0 0 0 0 0 0 0 0 0 0 0 0 0 0 0 0 0 0 0 0 0 0 0 0 0 0 0 0 0 0 0 0 -0.015318471492405875 1.798569771145729 0.1796542236082457 0.00006000001894016243 0.08917692013944001 0.0751880967283708 0 0 0 0 0 0 0 0 0 -0.654039989877664 1.6614056850808572 1.7042232113081357 18.060857646280958 -24.004310256634394 65.77318264941273 23.967880757282717 -3.436914461417632 21.8901912061259 4.129702040855133 2.2655457228511695 -1.6316539886953305 0 0 0 0 0 0 0 0 0 0 0 0 0 0 0 0 0 0 0 0 0 0 0 0 0 0 0 0 0 0 0 0 0 0 0 0 0 0 0 0 0 0 0 0 0
0.10238333134285779 0.25072293451691324 3.029982742425804 180 2.3366101043803726 -2.8631093870278055e-16 0.48873913242279865 -3.752451138251044 -5.433091717733487 0.6434168982357825 6.450573855346885 3.5910092423971585 0.775875509021485 2.9821605828042443 7.132835826284567 0 0 0 -179.5255898345611 -17.006695134365984 -176.47830136691178 -0.6804358208952668 7.005002269194633 -3.617657706752421 -0.4796927473810991 5.543297631436422 -5.505259190525936 0 0 0 -0.7138145517306947 -2.729979639517536 -1.2382937043904023 -0.5417614287824521 11.405771387967476 -1.392448777102929 0 0 0 -17.1161023269804 -21.2137715754634 -10.201332700175847 -51.85401711120198 -24.283994332504598 3.543129117802293 -63.727984206065656 -19.445228210141657 -29.954864109870357 21.131162973615176 -10.799390576959102 -26.004294006641427 0 0 0 0 0 0 0 0 0 0 0 0 0 0 0 0 0 0 0 0 0 0 0 0 0 0 0 0 0 0 0 0 0 0 0 0 0 0 0 0 0 0 0 0 0 -0.03031585006840649 1.8557299531204456 0.2550458791260238 -0.09179260086641039 0.11658071072322995 0.10491655138186048 0 0 0 0 0 0 0 0 0 -0.5897284433316768 1.405998622573009 1.7101043904295123 18.060857646280958 -24.004310256634394 65.77318094483134 23.864410889488273 -3.399313545859314 21.800008365541455 4.0554878565612675 2.1798812765579876 -1.5493074436711725 0 0 0 0 0 0 0 0 0 0 0 0 0 0 0 0 0 0 0 0 0 0 0 0 0 0 0 0 0 0 0 0 0 0 0 0 0 0 0 0 0 0 0 0 0
0.10238333134285779 0.25072293451691324 3.019860730501902 180 1.673815952132087 -2.050416693327379e-16 0.4550022596960466 -2.880540168719005 -5.388525671860517 0.6370672110477018 6.159716602653142 3.5106307115628796 0.7787998767172408 3.196649237334026 7.156863985985984 0 0 0 -179.4966581329782 -17.313907573099744 -176.43594359568314 -0.7022963629700518 7.642490196165766 -3.753076489535134 -0.47765813557351217 5.262133038416022 -5.431980025251847 0 0 0 -0.7136835188041362 -2.4802145068880326 -1.2414314283583399 -0.5428368484391645 11.931427873688364 -1.3974969836056974 0 0 0 -17.39078010601104 -21.38461317563809 -10.006660543188415 -51.8436422789196 -24.284078631045002 3.5414711798733225 -63.42403366096693 -19.279839764936177 -29.886795538440143 20.93384250138319 -10.815499285868572 -26.114617729775023 0 0 0 0 0 0 0 0 0 0 0 0 0 0 0 0 0 0 0 0 0 0 0 0 0 0 0 0 0 0 0 0 0 0 0 0 0 0 0 0 0 0 0 0 0 -0.04523845325552314 1.9129099220021326 0.3304250204944026 -0.1836310620974761 0.1440321260069619 0.1346010702480279 0 0 0 0 0 0 0 0 0 -0.5254494078967158 1.1505852369236418 1.71569835846869 18.06085942338679 -24.004310256634394 65.77318094483134 23.760886513994414 -3.36187509591543 21.709762336574457 3.981155082298412 2.0943235858173264 -1.4668544703814226 0 0 0 0 0 0 0 0 0 0 0 0 0 0 0 0 0 0 0 0 0 0 0 0 0 0 0 0 0 0 0 0 0 0 0 0 0 0 0 0 0 0 0 0 0
0.10238333134285779 0.25072293451691324 2.9996167066540984 180 0.3459509967646647 -4.2367295191067706e-17 0.38937084534388805 -1.1300178119561182 -5.300671912364771 0.6256035973342737 5.577722410679216 3.35002206086773 0.7849231928940257 3.625721586281604 7.204980852200492 0 0 0 -179.43933330283483 -17.928686391819898 -176.35146046132093 -0.7508071500811528 8.919968880854107 -4.025891059473481 -0.4746719052023922 4.699567619310784 -5.285484266850824 0 0 0 -0.7134625837236633 -1.980532395570059 -1.2477037000164901 -0.545141765321353 12.984169007596657 -1.4076687030129398 0 0 0 -17.943250107991144 -21.723840961466447 -9.613796906142491 -51.822906039753704 -24.284252848205835 3.538154829849376 -62.81600901854447 -18.949870209397798 -29.747981629693047 20.53915267972118 -10.848846794754166 -26.335178521536456 0 0 0 0 0 0 0 0 0 0 0 0 0 0 0 0 0 0 0 0 0 0 0 0 0 0 0 0 0 0 0 0 0 0 0 0 0 0 0 0 0 0 0 0 0 -0.07487319795312986 2.027376870331871 0.4812116284506283 -0.36735308959238167 0.19910405690641733 0.193865437135636 0 0 0 0 0 0 0 0 0 -0.3969367114006191 0.6395669026903487 1.7260282513030432 18.06085586917509 -24.004312125840233 65.77318929721379 23.553635730316838 -3.287476902377272 21.529042059729335 3.8321160631088076 1.923511620754633 -1.301611505224568 0 0 0 0 0 0 0 0 0 0 0 0 0 0 0 0 0 0 0 0 0 0 0 0 0 0 0 0 0 0 0 0 0 0 0 0 0 0 0 0 0 0 0 0 0
0.10238333134285779 0.25072293451691324 2.9894946947301966 -180 -0.3192410117128116 -4.0731718523967805e-17 0.35746741303031404 -0.25179984306882114 -5.257368601234821 0.6204878451270179 5.286600346704961 3.269790030938555 0.7881215664192003 3.84029872017843 7.229068648525899 0 0 0 -179.4109423059641 -18.23623578181421 -176.30933308481823 -0.7774913171867487 9.559792476078398 -4.163328802482547 -0.47372086205549496 4.418180849845109 -5.212264943343537 0 0 0 -0.7133730604116031 -1.730623800859761 -1.250839747312263 -0.5463712242542315 13.511165185755935 -1.4127930852653527 0 0 0 -18.221033282710483 -21.89220044788732 -9.415611886100258 -51.812523589473486 -24.28433340030724 3.536497352626626 -62.511956264642635 -18.785319029094193 -29.677262342486618 20.341789689413194 -10.866083984703922 -26.44540485787572 0 0 0 0 0 0 0 0 0 0 0 0 0 0 0 0 0 0 0 0 0 0 0 0 0 0 0 0 0 0 0 0 0 0 0 0 0 0 0 0 0 0 0 0 0 -0.08958376156084412 2.0846641849456105 0.5566186766933137 -0.45923606093174557 0.22672383867117873 0.22344479168865833 0 0 0 0 0 0 0 0 0 -0.33269980587167375 0.3839739111616153 1.7307646895661528 18.060857646280958 -24.004310256634394 65.77318435399418 23.449922013734092 -3.2505200843397053 21.438581976056238 3.757411339626491 1.8382599249574387 -1.2188226334066394 0 0 0 0 0 0 0 0 0 0 0 0 0 0 0 0 0 0 0 0 0 0 0 0 0 0 0 0 0 0 0 0 0 0 0 0 0 0 0 0 0 0 0 0 0
0.10238333134285779 0.25072293451691324 2.979372682806295 -180 -0.984433013570435 -1.205701317911773e-16 0.3262261123487389 0.6264418931698359 -5.214551727330489 0.6157836511666578 4.99547111156 3.1896206245916217 0.7914111913398623 4.054874604678842 7.253174713680626 0 0 0 -179.38273912003746 -18.543805962982127 -176.26729099705312 -0.8057868305795035 10.199549989174256 -4.301337080615609 -0.4731306800479215 4.136793386977071 -5.139077756278539 0 0 0 -0.7132969262053653 -1.4807151486105368 -1.2539751697299888 -0.5476520690287521 14.038160861665485 -1.417940928072903 0 0 0 -18.49977472084673 -22.059664560120357 -9.216314613036483 -51.80214407016296 -24.284413952459737 3.5348394084523855 -62.20798531955577 -18.621124842437887 -29.60568961104855 20.14444926388729 -10.883694278336467 -26.555576582953645 0 0 0 0 0 0 0 0 0 0 0 0 0 0 0 0 0 0 0 0 0 0 0 0 0 0 0 0 0 0 0 0 0 0 0 0 0 0 0 0 0 0 0 0 0 -0.10421940670788063 2.1419710992018723 0.6320137900849495 -0.5511049535039455 0.2543910446859685 0.25297986345492957 0 0 0 0 0 0 0 0 0 -0.2684852887496518 0.1283757806986043 1.7352144361710604 18.06085942338679 -24.004310256634394 65.77318094483134 23.346154654325936 -3.213726878790031 21.34805787222154 3.6825872386092535 1.7531165092756695 -1.1359264868165966 0 0 0 0 0 0 0 0 0 0 0 0 0 0 0 0 0 0 0 0 0 0 0 0 0 0 0 0 0 0 0 0 0 0 0 0 0 0 0 0 0 0 0 0 0
0.10238333134285779 0.25072293451691324 2.959128658958491 -180 -2.3169821003441013 -2.839032341495838e-16 0.26550259654756275 2.3880277113277084 -5.13006097455333 0.6076053053010634 4.412998001331391 3.02940043987974 0.7982665746368979 4.48409247374537 7.301454275590317 0 0 0 -179.32687412591926 -19.159214669537906 -176.18342630082554 -0.8673797697477207 11.480865417945662 -4.5796557344385675 -0.47303092135015407 3.5738425495844877 -4.992737123157348 0 0 0 -0.7131857068322638 -0.980787077394668 -1.2602447496610896 -0.550372510059308 15.093224868956147 -1.4283213189014778 0 0 0 -19.060346802316538 -22.39199754125361 -8.814219693500359 -51.781393196506215 -24.284582550153615 3.531523274465443 -61.599925014069875 -18.293650469307085 -29.459905435729603 19.749753081829894 -10.92003966645074 -26.77580003250998 0 0 0 0 0 0 0 0 0 0 0 0 0 0 0 0 0 0 0 0 0 0 0 0 0 0 0 0 0 0 0 0 0 0 0 0 0 0 0 0 0 0 0 0 0 -0.13327976823356533 2.256689463511099 0.7828330374047975 -0.7348845845437534 0.3098924229070654 0.31194505783337784 0 0 0 0 0 0 0 0 0 -0.1400815914141949 -0.38296518168672705 1.7432561045079136 18.060857646280958 -24.004310256634394 65.77318094483134 23.13843489541328 -3.140625615880944 21.16680323676657 3.532566450412116 1.5831423903460462 -0.9697989455618979 0 0 0 0 0 0 0 0 0 0 0 0 0 0 0 0 0 0 0 0 0 0 0 0 0 0 0 0 0 0 0 0 0 0 0 0 0 0 0 0 0 0 0 0 0
